<svg version="1.1" id="Layer_1" xmlns="http://www.w3.org/2000/svg" xmlns:xlink="http://www.w3.org/1999/xlink" x="0px" y="0px"
	 width="100%" viewBox="0 0 1024 512" enable-background="new 0 0 1024 512" xml:space="preserve">
<path fill="#000000" opacity="1.000000" stroke="none" 
	d="
M889.579468,330.218933 
	C891.362915,331.514862 891.199280,333.071991 891.204041,334.557220 
	C891.249756,348.884003 891.228577,363.214172 892.342468,377.509796 
	C892.573669,380.477051 891.851501,381.797424 888.549866,382.522919 
	C875.874634,385.307892 866.164062,392.279358 860.098450,404.024506 
	C857.971924,408.142212 855.131714,411.844299 854.963684,416.834320 
	C854.848083,420.267365 851.983643,420.172119 849.357300,420.162994 
	C824.860657,420.077820 800.363586,420.098358 775.867249,419.965576 
	C758.886292,419.873505 741.906494,419.578979 724.925903,419.400208 
	C722.445007,419.374084 719.916992,419.171539 717.577576,420.422791 
	C717.160645,422.083405 718.628418,422.735504 719.374573,423.701843 
	C726.811707,433.334229 724.989014,445.502380 714.646362,451.790436 
	C705.821960,457.155396 696.442139,457.071625 687.583130,451.868073 
	C678.656921,446.625000 678.535095,433.839722 687.025635,428.437897 
	C690.314087,426.345642 693.622131,426.210693 696.757812,428.729980 
	C699.070190,430.587860 700.147339,433.049652 698.649475,435.784851 
	C697.411987,438.044678 695.741211,439.620422 692.549744,438.158203 
	C689.491882,436.757172 689.179504,439.058716 689.656494,441.321045 
	C689.851196,442.244507 690.485657,443.147552 691.115479,443.895264 
	C695.263367,448.818848 705.658630,449.262451 711.334900,444.804443 
	C716.573425,440.690247 717.086365,434.768890 712.810852,428.368591 
	C707.540649,420.479187 699.466675,417.921356 690.743591,417.821075 
	C682.441589,417.725586 674.177246,418.854187 666.731140,423.350616 
	C662.737671,425.762177 659.838013,429.098938 657.285828,432.804535 
	C655.158691,435.893158 656.086243,438.821625 659.490967,439.647308 
	C661.747253,440.194489 663.215210,441.067932 663.229736,443.496185 
	C663.247925,446.546204 661.424316,448.405914 658.888184,449.659515 
	C656.559326,450.810699 654.567383,450.014221 653.193909,448.053131 
	C650.237854,443.832397 648.057617,439.245575 647.481323,433.753418 
	C638.117615,440.053589 630.360107,447.870850 622.475647,455.447601 
	C607.061401,470.260284 588.776672,477.370026 567.613464,476.125488 
	C559.916992,475.672913 551.953064,476.342743 544.171753,472.771362 
	C543.255615,480.739624 538.093567,481.660706 532.146606,481.397400 
	C530.650818,481.331116 529.146851,481.387299 527.648865,481.444702 
	C524.641052,481.559967 522.992249,482.929626 523.316467,486.157776 
	C523.671204,489.690186 522.910217,493.130585 522.237915,496.552917 
	C521.237610,501.644318 517.114136,506.241089 513.232605,506.039551 
	C508.461761,505.791809 506.153503,502.006958 504.348633,498.228149 
	C503.372559,496.184570 503.029266,493.766266 502.766479,491.475006 
	C502.507294,489.215363 502.709839,486.902771 502.709839,483.992004 
	C494.723602,485.563934 488.473022,482.596771 482.537231,478.708435 
	C481.239807,477.858551 479.212189,476.899231 480.460449,474.864624 
	C481.636108,472.948334 483.299835,474.026459 484.834167,474.803589 
	C491.695709,478.278961 496.609467,477.317902 501.663177,471.593018 
	C506.013611,466.664825 507.850372,462.242767 508.761597,454.721313 
	C490.292603,472.840271 468.269287,479.052521 442.481567,475.176331 
	C425.418884,472.611572 411.857086,464.866608 400.139343,452.786163 
	C392.967804,445.392670 385.632446,438.125336 376.167328,432.589325 
	C375.622131,437.978058 375.449188,443.164246 372.212402,447.413208 
	C369.216980,451.345215 365.186981,451.238892 362.940765,447.272003 
	C361.424011,444.593323 362.021271,442.542908 364.482178,440.849915 
	C369.572754,437.347839 370.054016,434.451050 365.715179,429.854889 
	C360.091644,423.897919 353.313690,419.864563 344.984741,418.798370 
	C334.857269,417.501953 325.062286,417.613403 316.277344,423.977692 
	C308.806488,429.389984 307.419922,435.843475 312.652924,442.199188 
	C317.792206,448.441162 328.252777,449.599640 333.733124,444.511414 
	C335.585052,442.791992 336.568604,440.847534 335.092834,438.437408 
	C334.653595,438.306427 334.282257,438.053711 334.040283,438.144745 
	C330.303619,439.551086 327.083221,439.244476 325.319580,435.179840 
	C324.118744,432.412323 325.599121,430.283844 327.741516,428.733276 
	C331.036224,426.348633 334.468018,426.074402 337.899689,428.626007 
	C345.997528,434.647064 345.112427,448.200867 335.997162,453.136292 
	C327.701080,457.628143 319.151947,456.770081 311.210632,452.164215 
	C303.728027,447.824493 300.889374,440.974731 301.532715,432.280792 
	C301.937592,426.809174 305.425781,423.724823 308.970428,420.351715 
	C307.601135,419.228729 306.065735,419.414856 304.671478,419.413239 
	C281.174072,419.386414 257.654602,418.792328 234.186142,419.624542 
	C215.373062,420.291656 196.527298,419.631134 177.750641,421.149872 
	C173.101532,421.525940 171.092499,420.113708 170.176712,415.158539 
	C168.608658,406.673889 164.206329,399.369904 158.186737,393.064667 
	C152.498215,387.106140 145.616852,383.775024 137.444366,383.435913 
	C134.095306,383.296936 132.508514,382.332458 132.843475,378.760315 
	C134.167496,364.640747 133.967957,350.479645 133.707047,336.326843 
	C133.644058,332.911163 135.260391,332.063263 138.264679,332.019226 
	C141.383194,331.973480 143.343536,332.594452 143.306396,336.360535 
	C143.204712,346.670624 143.530701,356.987640 143.284317,367.292267 
	C143.186737,371.373749 144.294037,373.632843 148.271622,375.199005 
	C161.891937,380.561951 172.137314,389.721832 177.394470,403.618469 
	C179.442307,409.031677 182.412674,410.974152 188.381348,411.038086 
	C233.360260,411.519867 278.307404,409.366150 323.283295,409.720245 
	C346.939392,409.906525 370.593048,410.040375 394.242889,410.644012 
	C401.893860,410.839294 409.389069,410.631836 416.713715,407.478790 
	C424.690613,404.044983 432.892059,405.849487 440.561584,408.955994 
	C450.436523,412.955750 452.016022,424.949066 443.951843,431.721802 
	C441.791718,433.536041 440.125885,433.148956 438.339935,431.315033 
	C436.719604,429.651093 435.641418,428.335388 437.561554,425.840668 
	C442.264862,419.729919 440.503693,415.257629 432.973022,413.266174 
	C417.282745,409.117035 404.728821,420.721863 406.659729,436.875183 
	C409.311249,459.057098 426.069611,465.906158 440.794952,467.787994 
	C453.062134,469.355682 465.093903,468.644653 476.929016,465.505188 
	C492.377380,461.407257 503.453644,452.724945 506.327545,435.884979 
	C508.103027,425.481506 502.102692,416.468109 491.720306,414.525909 
	C485.296387,413.324158 479.620941,416.898560 478.018005,423.228424 
	C477.782928,424.156799 477.619904,425.255920 477.889435,426.132874 
	C479.010223,429.779816 481.799683,431.900177 485.396332,431.329681 
	C490.124817,430.579590 486.927368,426.924194 487.046692,424.530243 
	C495.693848,424.213959 501.078583,432.477600 497.174927,440.080902 
	C493.907562,446.444824 488.588745,450.729767 482.014954,453.207214 
	C464.400238,459.845520 446.655548,458.594391 429.255493,452.660828 
	C419.727417,449.411652 415.566467,440.891846 417.716187,432.088806 
	C418.160614,430.268921 418.871826,428.575958 420.176392,427.250732 
	C421.428436,425.978882 422.863434,424.159271 424.820038,425.557190 
	C426.615479,426.840057 425.286224,428.560242 424.565277,430.029083 
	C422.168152,434.913025 423.285614,438.869720 427.283203,442.511749 
	C434.120941,448.741302 442.638214,450.352356 451.248260,451.263580 
	C463.489380,452.559021 475.613464,452.000031 486.455109,445.096802 
	C490.437317,442.561188 493.839539,439.389252 493.622650,433.480652 
	C490.514923,436.317657 487.592072,438.854858 483.437469,438.076813 
	C479.401123,437.320953 475.864990,435.561615 473.313110,432.178619 
	C468.722168,426.092285 470.520782,416.996033 477.329742,411.898560 
	C485.201935,406.005188 497.165009,406.240448 505.832184,412.539703 
	C508.371948,414.385590 510.768829,416.428131 513.409607,418.522003 
	C515.486206,416.779755 517.347046,415.159027 519.270203,413.615875 
	C525.930115,408.271851 533.659546,406.800323 541.873718,407.939819 
	C549.015015,408.930511 555.070801,415.968933 555.174011,422.779541 
	C555.286499,430.204285 550.309875,436.056671 542.889160,437.666443 
	C538.912964,438.528961 535.939575,436.289673 532.533691,434.515137 
	C531.217957,437.727020 533.106750,439.288147 534.648438,440.863586 
	C540.950439,447.303650 549.100403,449.668335 557.659424,450.535889 
	C570.342407,451.821381 582.521545,450.327332 593.670166,443.258789 
	C599.741882,439.409180 601.688965,434.276520 600.463379,427.525146 
	C600.183716,425.984497 598.936707,424.048157 601.278381,423.273285 
	C603.133911,422.659241 604.280212,424.278839 605.293762,425.617889 
	C610.107239,431.977203 608.275330,441.690613 601.007446,447.217102 
	C593.519470,452.911041 584.901367,455.774963 575.587769,456.655304 
	C562.967224,457.848267 550.595764,457.123169 539.084106,451.183838 
	C533.380188,448.240967 529.806091,443.426910 527.468445,437.386200 
	C525.085327,431.227692 529.026062,423.592163 536.225403,423.185638 
	C537.505432,423.901031 537.115845,425.161926 537.172546,426.272644 
	C537.268127,428.142212 537.331665,430.067230 539.599365,430.683807 
	C541.686890,431.251373 543.562256,430.661865 545.168701,429.262421 
	C549.473938,425.511719 548.053894,418.641052 542.480164,416.191803 
	C533.037598,412.042419 520.949890,418.572845 519.448303,428.771362 
	C518.174072,437.425446 520.624329,444.916046 527.052856,450.990479 
	C538.865906,462.152893 553.074707,467.390045 569.149353,467.986755 
	C578.538696,468.335358 587.729492,467.096100 596.777283,464.581940 
	C609.867004,460.944611 619.737000,446.165802 618.069580,432.780792 
	C617.554199,428.643433 617.377502,424.466644 615.161194,420.762634 
	C609.207092,410.812042 592.018127,409.152710 584.089600,417.759155 
	C581.806763,420.237152 583.639648,425.068604 587.382080,426.418976 
	C588.605774,426.860565 590.097046,426.296936 591.150085,427.400177 
	C588.541687,433.356567 584.821350,434.417816 580.310120,430.132233 
	C573.170105,423.349335 573.270569,416.785492 581.885925,411.247467 
	C591.638000,404.978851 602.393616,403.463928 613.226440,409.043915 
	C615.560608,410.246246 617.825745,410.744873 620.377136,410.703247 
	C639.366089,410.393463 658.355347,409.932434 677.345337,409.893555 
	C721.672119,409.802795 765.999695,410.024323 810.326172,409.881989 
	C820.965149,409.847839 831.641479,410.409210 842.266907,408.927063 
	C845.122681,408.528687 846.729614,407.340271 847.889771,404.825653 
	C854.208496,391.130096 864.000305,380.856049 878.001648,374.896973 
	C881.573486,373.376770 882.963501,370.963165 882.692627,367.091827 
	C881.845947,354.994507 881.193726,342.883575 880.456421,330.614838 
	C883.299133,329.088409 886.251343,329.721313 889.579468,330.218933 
M398.333557,427.203003 
	C399.647644,423.522186 400.961731,419.841370 402.474976,415.602722 
	C390.866577,415.031647 379.702026,415.497650 368.349213,416.728027 
	C378.293823,422.851196 387.125732,430.029907 395.987122,437.265564 
	C398.268829,434.018158 397.170349,430.805359 398.333557,427.203003 
M634.234314,432.673431 
	C641.279358,426.804443 649.388977,422.472961 656.997803,417.066376 
	C645.597473,415.189819 634.405518,415.586182 622.407410,416.260498 
	C627.556946,422.782227 627.577881,429.945679 627.532410,437.244659 
	C630.434143,436.405151 631.867615,434.477692 634.234314,432.673431 
M528.287354,472.213715 
	C531.353455,473.743195 534.306763,475.583313 538.107544,475.963104 
	C538.496643,473.688690 540.858582,471.402618 537.761353,469.752441 
	C530.484558,465.875519 524.024414,461.035156 518.421326,453.161987 
	C518.277832,462.247406 521.825256,467.644806 528.287354,472.213715 
M512.472839,471.200439 
	C511.597504,475.563385 510.590942,479.905212 509.883179,484.295197 
	C509.152771,488.825439 509.853760,493.211639 511.586243,498.125061 
	C514.838440,495.943146 516.718750,493.973450 516.723511,490.592224 
	C516.733215,483.704132 515.251953,477.129150 512.472839,471.200439 
z"/>
<path fill="#000000" opacity="1.000000" stroke="none" 
	d="
M144.036469,151.912750 
	C142.972076,160.500580 143.127625,168.676407 143.629181,176.817032 
	C143.895752,181.143738 141.811142,183.439423 138.147247,183.624161 
	C134.149384,183.825745 133.615234,180.343735 133.711700,177.198853 
	C133.936234,169.877380 134.528625,162.561890 134.568512,155.241776 
	C134.598373,149.763138 134.024490,144.279404 133.668091,138.801270 
	C133.499954,136.217163 134.470230,135.242355 137.173279,134.527710 
	C153.757217,130.143112 165.695175,120.622231 170.119873,103.311897 
	C170.725525,100.942436 171.237411,98.826149 174.528366,99.098251 
	C191.338226,100.488121 208.156494,99.196877 224.968246,99.026039 
	C250.131622,98.770348 275.283600,99.239319 300.438995,99.619850 
	C303.082886,99.659836 305.755463,99.779854 308.671112,98.504875 
	C303.074188,92.539589 300.525421,85.936363 302.518066,77.862511 
	C306.622681,61.231342 328.637756,57.985920 338.686432,66.309700 
	C345.564575,72.007172 345.446228,83.785088 338.639954,88.745186 
	C334.855743,91.502953 329.981689,91.092529 327.407074,87.816170 
	C326.550262,86.725853 325.878479,85.620438 326.515625,84.169197 
	C327.170929,82.676567 328.159485,81.631432 329.924255,81.786736 
	C332.816284,82.041245 335.747681,81.622269 336.186218,78.356850 
	C336.612152,75.185303 333.964691,73.328011 331.370514,72.012550 
	C326.051788,69.315529 320.651520,69.608124 315.585114,72.506119 
	C308.370483,76.632912 307.353333,85.152489 313.116974,91.212082 
	C322.647675,101.232170 338.794250,103.798492 353.467133,97.570862 
	C358.568512,95.405693 363.392273,92.798874 366.801544,88.201973 
	C369.764282,84.207207 369.411285,82.239342 365.191925,79.609085 
	C363.219818,78.379707 361.739014,76.781212 362.183563,74.343300 
	C362.632538,71.881149 364.376495,70.277611 366.648682,69.327553 
	C369.060120,68.319275 370.898865,69.499863 372.389313,71.194458 
	C374.787018,73.920616 375.597443,77.351341 376.222290,80.812508 
	C376.481323,82.247131 376.132843,83.857628 377.748840,85.124985 
	C381.583649,83.973038 384.498108,81.211090 387.418213,78.603554 
	C393.754425,72.945557 400.040985,67.222244 406.145081,61.316063 
	C418.851318,49.021824 434.420532,44.296062 451.614380,43.794041 
	C462.096771,43.487980 472.613678,43.062180 482.451691,47.439651 
	C485.726318,40.936977 491.576569,39.153934 497.299713,37.971046 
	C501.523895,37.097961 502.918213,35.292511 502.743164,31.291981 
	C502.597839,27.971096 502.658264,24.587757 504.770325,21.695248 
	C507.098358,18.506983 509.894531,15.253016 514.047058,15.950017 
	C518.739380,16.737633 521.502625,20.509144 523.359253,24.857790 
	C525.036255,28.785854 523.559692,33.109882 524.979126,37.311699 
	C533.719238,36.045120 540.501099,39.397640 546.480591,45.442612 
	C549.249084,48.241425 553.075012,46.692837 556.427612,45.953117 
	C577.637573,41.273315 597.594421,43.594212 614.908508,57.594582 
	C623.957703,64.911880 632.169617,73.261658 640.815552,81.083420 
	C642.627869,82.723022 644.363037,84.643822 647.188843,84.869400 
	C649.914978,80.973846 650.261108,76.115669 652.508484,72.059120 
	C653.837708,69.659737 655.730896,68.244904 658.537781,68.413635 
	C661.264343,68.577538 662.614563,70.424232 663.405151,72.776466 
	C664.191162,75.115433 663.741638,76.833595 661.297852,78.124802 
	C656.010437,80.918518 655.491394,83.369492 658.724060,88.435898 
	C664.697510,97.797821 680.680298,103.720161 693.522034,101.213318 
	C701.605591,99.635323 709.595093,97.792961 714.275879,89.898796 
	C717.885559,83.811096 717.400024,79.346687 712.541992,74.624924 
	C707.881470,70.095116 700.351196,68.822525 695.517822,71.776390 
	C692.632996,73.539452 690.840149,75.879257 691.443787,79.895714 
	C695.341736,78.578522 698.250427,79.549202 699.664978,83.252281 
	C700.669250,85.881416 699.186707,87.869316 697.064941,89.104027 
	C693.471497,91.195206 689.705322,91.342621 686.323303,88.642998 
	C679.624023,83.295441 680.483032,71.323105 687.860107,65.926231 
	C695.759705,60.147072 709.766907,61.217545 717.633179,68.201492 
	C724.836853,74.597206 725.749817,84.324753 720.064880,94.110992 
	C717.528809,98.476662 718.048340,99.560753 723.253662,99.570473 
	C752.751831,99.625565 782.260742,100.041702 811.743469,99.360138 
	C824.558289,99.063896 837.382874,99.036629 850.194519,98.597267 
	C853.594666,98.480667 854.929443,99.452667 855.646790,103.119461 
	C858.517822,117.795830 872.232239,134.131134 888.262024,135.657211 
	C890.892517,135.907639 891.983643,136.970764 891.886963,139.819687 
	C891.474182,151.970642 891.264404,164.128754 891.023254,176.285095 
	C890.967957,179.070251 891.159912,181.509323 886.986633,181.506271 
	C882.896912,181.503296 882.353210,179.384750 882.313477,176.182175 
	C882.199585,167.029236 881.953064,157.877945 881.835876,148.725021 
	C881.806152,146.402023 881.570251,144.281372 878.910583,143.618561 
	C862.319946,139.484116 853.864380,126.922005 847.160706,112.714561 
	C845.658875,109.531723 843.901794,108.357872 840.390564,108.280159 
	C801.560120,107.420692 762.726074,108.071373 723.910278,108.620514 
	C694.418335,109.037766 664.950989,108.344345 635.474792,108.517120 
	C625.779541,108.573944 616.162048,108.197960 606.490417,111.724838 
	C595.370178,115.779968 582.640930,110.519592 577.325928,101.852295 
	C574.750610,97.652679 578.952332,87.588745 583.742676,86.790489 
	C586.852600,86.272263 589.252502,87.469269 590.351440,90.401009 
	C590.275818,91.933517 589.129578,92.068031 588.339966,92.621803 
	C584.400696,95.384460 584.178711,98.767326 587.663452,102.181046 
	C595.906128,110.255646 610.787415,106.605583 615.804932,96.102119 
	C625.292603,76.240875 609.173767,57.715427 593.928467,53.670597 
	C577.845703,49.403572 562.003723,50.969006 546.769775,56.175335 
	C534.740051,60.286579 525.564880,68.703667 521.856567,81.597198 
	C518.315979,93.907623 527.390076,105.146072 539.405823,103.574760 
	C545.214417,102.815163 548.491455,99.069092 547.900940,93.896683 
	C547.532227,90.666489 545.893555,88.561447 542.549744,88.370209 
	C539.220398,88.179794 538.391174,90.471954 538.234314,93.263245 
	C538.208801,93.717438 537.879761,94.154572 537.704224,94.568459 
	C530.452332,94.402321 527.316345,90.636986 528.490784,83.799835 
	C529.489136,77.988052 532.779785,73.724632 537.484558,70.533348 
	C548.589478,63.000797 560.940857,60.635475 574.155029,61.998592 
	C582.624512,62.872269 591.044434,63.858452 598.626221,68.221474 
	C605.624329,72.248566 609.213196,78.835289 608.072998,86.002945 
	C607.389221,90.301735 605.468567,93.780449 601.087524,95.373268 
	C598.959290,93.654594 600.112488,91.917809 600.611938,90.253677 
	C602.741577,83.157471 601.169250,79.032806 595.088501,74.846428 
	C588.934570,70.609703 581.835510,69.452225 574.744995,68.721497 
	C562.134094,67.421867 549.715698,67.962326 538.772583,75.629288 
	C535.917358,77.629745 533.389648,79.926895 533.679871,84.082970 
	C536.561340,83.997910 538.338806,81.839775 540.921692,81.637115 
	C547.360779,81.131882 552.503235,83.980797 554.459839,89.503014 
	C556.956421,96.549629 554.989075,102.692894 549.011841,106.514954 
	C538.966797,112.938141 523.481506,109.923935 516.263306,100.121323 
	C515.382935,98.925697 514.608826,97.651802 513.483459,95.960312 
	C511.971466,97.757309 510.673126,99.358055 509.314331,100.905678 
	C501.278046,110.058754 487.822021,112.999847 478.006866,107.765656 
	C472.570465,104.866547 469.641144,98.396446 470.877472,92.018661 
	C471.979340,86.334694 477.128052,82.028435 483.243805,81.327965 
	C487.458313,80.845268 490.434448,83.130974 493.520477,85.767891 
	C494.450562,82.386635 492.607300,80.593781 490.831787,78.885483 
	C481.900970,70.292648 470.654755,68.077881 458.961334,68.481773 
	C449.319672,68.814804 439.769653,70.539101 431.421234,76.167320 
	C423.873016,81.256065 422.598877,84.554794 425.116394,93.502136 
	C425.288116,94.112366 425.306122,94.765823 425.394531,95.391579 
	C421.411377,96.205116 418.504578,94.279945 417.865234,89.931313 
	C416.784119,82.578300 418.267426,76.096313 424.740723,71.344864 
	C435.416870,63.508476 447.677246,61.794056 460.334076,62.235161 
	C469.966827,62.570873 479.593536,63.385906 488.159119,68.888077 
	C493.186890,72.117676 496.665680,76.196480 498.348206,81.917305 
	C500.602753,89.583061 496.450531,95.258369 488.255951,95.561661 
	C488.078705,95.286560 487.793121,95.024475 487.751526,94.728142 
	C487.461517,92.662384 489.783264,89.980003 486.502136,88.644203 
	C484.041016,87.642250 481.819580,88.636276 480.207520,90.493187 
	C478.345734,92.637733 477.706299,95.111855 479.219055,97.867737 
	C482.813324,104.415756 492.605713,105.739182 499.357574,100.536888 
	C507.815704,94.019913 508.367157,79.769699 500.414124,71.018623 
	C495.056213,65.123093 488.474945,60.840305 481.195984,57.809433 
	C461.768738,49.720135 442.099396,47.913616 422.790161,57.808434 
	C408.382904,65.191299 403.077087,82.092911 409.456390,96.823166 
	C414.977539,109.571915 432.254730,109.845909 441.640778,100.400948 
	C443.137909,98.894417 442.339661,97.359032 441.519714,95.835297 
	C440.300690,93.569984 437.780060,93.228462 435.631287,91.875374 
	C435.861969,89.379387 437.070374,87.432510 439.382050,86.639252 
	C441.737579,85.830940 443.461090,87.497681 445.049347,89.026764 
	C451.739197,95.467331 451.270111,101.904228 443.522736,107.201744 
	C434.306244,113.503807 424.397919,114.535027 414.109772,110.205009 
	C410.961426,108.879944 407.854889,108.078644 404.457306,108.151917 
	C332.145599,109.711601 259.820465,108.759674 187.502533,109.207375 
	C181.753143,109.242966 178.709473,110.710876 176.481140,116.560562 
	C171.873917,128.655075 162.447205,136.842194 150.652466,141.615036 
	C145.511383,143.695404 143.527298,146.337875 144.036469,151.912750 
M391.734467,85.298424 
	C384.943359,91.752792 376.426910,95.873161 369.096527,101.896576 
	C379.798615,102.980461 390.298584,102.804459 401.790588,102.438881 
	C397.160980,96.223259 398.162201,89.279930 396.636292,83.135857 
	C394.396301,82.676308 393.472931,84.084457 391.734467,85.298424 
M646.437256,102.826057 
	C649.725159,102.489731 653.143982,103.434692 657.401855,101.910828 
	C646.971375,96.357704 638.124817,90.150459 628.989197,82.530106 
	C627.573792,90.223259 625.956177,96.202797 623.181641,102.832878 
	C631.261108,102.832878 638.359497,102.832878 646.437256,102.826057 
M525.557556,47.986832 
	C520.858459,52.968182 518.125854,58.619736 519.505676,65.917603 
	C525.493347,57.429295 534.325806,52.920826 543.512512,48.491276 
	C536.613464,42.982651 533.512146,42.911854 525.557556,47.986832 
M489.298981,46.482182 
	C488.206879,47.362038 486.963196,48.625843 488.537689,49.669815 
	C495.210388,54.094135 500.742737,59.952705 507.304474,65.061211 
	C508.564575,54.223148 499.261322,44.532452 489.298981,46.482182 
M510.842163,39.826893 
	C511.429749,42.923336 512.018677,46.019325 513.724731,49.059959 
	C516.162476,40.291080 519.547852,31.824076 513.041504,23.379349 
	C509.124451,28.077633 508.648499,31.573524 510.842163,39.826893 
z"/>
<path fill="#000000" opacity="1.000000" stroke="none" 
	d="
M178.980713,212.001450 
	C175.002045,212.984772 173.492569,215.373947 174.520706,218.815170 
	C179.610428,235.850647 184.844849,252.842926 190.063065,269.839752 
	C190.239502,270.414429 190.787064,270.875183 191.130859,271.346832 
	C193.682220,271.089417 194.112488,269.127808 194.660934,267.474884 
	C199.792496,252.009201 205.536209,236.740005 209.793533,220.993011 
	C211.437973,214.910568 210.873230,213.780090 205.093094,211.584991 
	C203.161255,210.851379 201.767639,210.053131 201.878967,207.824249 
	C201.994507,205.510742 203.961777,205.380661 205.516434,205.175201 
	C212.643600,204.233307 219.822250,204.545883 226.966171,204.822372 
	C230.221893,204.948380 231.741791,208.943451 229.147675,210.491821 
	C218.473953,216.862839 217.922424,228.497162 214.317429,238.345551 
	C207.514923,256.929077 201.472397,275.793365 195.282257,294.596375 
	C193.965759,298.595306 191.705017,300.630005 187.495712,301.005615 
	C182.314072,301.467957 180.183884,300.205811 178.701935,295.164917 
	C174.388596,280.492920 170.071381,265.822052 165.721756,251.160782 
	C165.355682,249.926926 164.736053,248.768295 163.918823,246.824585 
	C161.103485,252.347855 159.935196,257.637177 158.334610,262.743439 
	C154.902603,273.692505 151.443695,284.640533 148.396698,295.699432 
	C147.102875,300.395264 143.855453,300.918884 140.070251,301.071106 
	C136.234634,301.225342 133.567047,300.037384 132.191818,295.850220 
	C124.304543,271.835632 116.157524,247.906479 108.159363,223.928101 
	C106.422585,218.721207 104.242027,213.999786 98.641975,211.865936 
	C96.604836,211.089706 96.030663,209.424622 96.470009,207.391724 
	C96.895302,205.423828 98.340775,204.735092 100.169647,204.729492 
	C110.163544,204.698883 120.157539,204.684052 130.151459,204.693680 
	C132.152786,204.695618 133.844696,205.360870 134.129456,207.626251 
	C134.407898,209.841293 133.075394,210.749542 131.090820,211.473404 
	C124.639839,213.826294 124.481743,214.058060 126.506653,220.377640 
	C131.731628,236.684341 137.078094,252.952194 142.420624,269.220917 
	C142.816849,270.427521 143.568558,271.517365 144.720413,273.764526 
	C148.886459,261.241150 152.367676,249.655167 156.635178,238.366440 
	C159.216034,231.539383 158.475342,225.422928 155.514450,219.161499 
	C154.134399,216.243134 152.552505,213.571381 149.376465,212.250000 
	C147.510529,211.473679 146.495361,210.153778 146.692398,207.974686 
	C146.923859,205.414963 148.977066,205.109360 150.672195,205.069504 
	C160.157364,204.846466 169.647675,204.768616 179.135681,204.800354 
	C181.003784,204.806595 182.826004,205.716461 183.056503,207.937332 
	C183.327011,210.543915 181.293198,211.221909 178.980713,212.001450 
z"/>
<path fill="#000000" opacity="1.000000" stroke="none" 
	d="
M639.256104,293.165161 
	C641.315308,291.118225 641.664734,288.892273 641.661743,286.477905 
	C641.634583,264.507935 641.576538,242.537521 641.711426,220.568344 
	C641.735413,216.663223 640.286682,214.246613 636.769714,212.860504 
	C634.380676,211.918961 632.670654,210.193771 633.099609,207.575577 
	C633.527466,204.963760 636.242065,205.211868 638.016541,205.183502 
	C653.459595,204.936584 668.981201,203.752563 684.270142,206.791687 
	C699.148254,209.749146 706.105103,221.028061 702.245361,235.142242 
	C701.007263,239.669479 698.231750,243.094299 694.471436,245.820343 
	C693.185669,246.752518 691.320496,247.056076 690.812012,248.938278 
	C691.485840,250.827057 693.358826,251.041580 694.788879,251.657227 
	C705.221985,256.148834 709.003906,264.187073 708.487183,275.232574 
	C707.981628,286.039398 702.327454,292.857849 693.083984,297.152954 
	C686.998291,299.980743 680.399597,301.069489 673.694763,301.102509 
	C662.543884,301.157410 651.392334,301.077576 640.241028,301.039825 
	C639.245911,301.036438 638.226196,301.042908 637.262024,300.837494 
	C635.803955,300.526825 634.223022,300.188751 633.963257,298.317230 
	C633.747498,296.762268 634.768921,295.861389 635.938721,295.136261 
	C636.925537,294.524536 637.959167,293.988464 639.256104,293.165161 
M659.069946,261.752594 
	C658.937439,270.724823 659.838745,279.719360 658.466553,288.665222 
	C658.052490,291.364685 659.068115,292.720917 661.983826,292.664246 
	C666.302612,292.580383 670.580261,292.527588 674.888611,291.809204 
	C684.120850,290.269684 689.858826,284.660095 690.617310,275.848511 
	C691.394958,266.814453 686.602356,259.666260 677.932983,256.730896 
	C674.096863,255.432068 670.091187,255.416443 666.157654,254.844254 
	C659.294373,253.845871 659.019226,254.067337 659.069946,261.752594 
M666.391846,212.448090 
	C659.709534,212.898911 659.056030,213.519394 658.975952,220.172943 
	C658.910034,225.652512 659.071838,231.134888 659.000671,236.614304 
	C658.843323,248.728455 658.302490,248.414978 670.286987,246.629730 
	C679.804626,245.211975 685.463562,239.183289 685.637573,230.039505 
	C685.805847,221.192825 680.463745,215.071976 671.092712,213.351608 
	C669.789062,213.112289 668.499329,212.797760 666.391846,212.448090 
z"/>
<path fill="#000000" opacity="1.000000" stroke="none" 
	d="
M573.789551,329.359772 
	C563.785828,329.671234 554.325684,329.693970 545.650757,324.734436 
	C541.463257,322.340454 538.114929,319.285553 536.389221,314.680969 
	C534.878540,310.650146 535.847046,307.582764 539.738525,305.434296 
	C542.309265,304.015076 545.403748,303.361755 547.450195,300.388428 
	C544.702515,296.694763 540.636536,293.415344 541.731079,287.945831 
	C542.842407,282.392609 548.545959,281.550751 552.171204,277.844086 
	C544.614014,272.593750 541.253479,265.364532 541.407227,256.175232 
	C541.696167,238.897415 557.105469,229.681015 571.934570,232.058380 
	C573.081848,232.242325 574.310059,232.364288 575.323059,232.870422 
	C581.094910,235.754074 586.621826,235.649475 592.319702,232.419235 
	C594.557434,231.150574 597.740173,230.299713 599.071167,233.840225 
	C600.288452,237.077957 598.600525,239.276352 595.425049,240.320877 
	C591.862427,241.492752 591.247131,243.364792 592.485962,247.110596 
	C598.691284,265.873566 584.855530,281.302704 565.682617,281.149017 
	C564.356812,281.138397 563.031677,280.889374 561.708435,280.732208 
	C558.878601,280.396088 557.838257,282.430511 557.172485,284.497009 
	C556.320679,287.141022 558.714478,287.619934 560.338623,287.984406 
	C563.725769,288.744537 567.186707,289.347046 570.646057,289.570801 
	C574.793579,289.839081 578.971069,289.651337 583.135559,289.649841 
	C593.302002,289.646240 597.736633,292.053284 599.966736,298.796478 
	C602.857178,307.536621 600.329163,317.150726 593.664673,322.312561 
	C587.968628,326.724365 581.407837,328.873322 573.789551,329.359772 
M557.310913,261.015869 
	C557.364197,264.115143 558.410095,266.904846 560.238342,269.340881 
	C564.149231,274.552094 570.922791,274.706696 574.606873,269.753876 
	C578.585938,264.404541 579.216980,250.134888 575.667847,244.385559 
	C573.614136,241.058685 570.763672,239.037918 566.643921,239.247955 
	C562.570068,239.455643 560.509644,242.070251 558.989197,245.436264 
	C556.855774,250.159271 557.049255,255.137299 557.310913,261.015869 
M555.126831,304.585510 
	C552.884888,306.752777 553.137146,309.287964 553.937439,311.975250 
	C556.141968,319.377686 562.051758,322.083466 568.779663,322.323151 
	C575.365417,322.557770 582.303650,321.892212 586.505798,315.487732 
	C589.486206,310.945374 586.850464,305.900299 581.354797,305.390808 
	C576.403564,304.931763 571.418579,304.345093 566.470703,304.504852 
	C562.847046,304.621887 559.347534,302.366486 555.126831,304.585510 
z"/>
<path fill="#000000" opacity="1.000000" stroke="none" 
	d="
M375.998199,234.747040 
	C383.857605,230.617264 391.663483,231.034958 400.281769,233.934250 
	C400.866028,227.028961 401.035400,220.951187 400.303162,214.918167 
	C399.955933,212.057281 397.087402,211.353210 394.667725,210.654129 
	C393.052429,210.187469 391.198181,209.958344 391.199249,207.765884 
	C391.200378,205.442261 393.022034,204.895126 394.880585,204.408890 
	C399.860138,203.106171 404.825562,201.748795 409.790314,200.390198 
	C415.452850,198.840637 417.451660,200.212585 416.903656,206.037766 
	C415.808380,217.680466 416.470520,229.332596 416.339569,240.977066 
	C416.174774,255.628784 416.462128,270.285919 416.262421,284.936737 
	C416.199951,289.517395 417.622925,292.181274 422.270325,293.098907 
	C424.254822,293.490723 427.151764,293.813080 426.838684,296.718628 
	C426.486633,299.985626 423.477417,299.177307 421.257568,299.393707 
	C416.794434,299.828888 412.250977,299.909332 407.895172,300.851044 
	C403.059387,301.896454 399.958893,301.175323 399.726929,295.786774 
	C398.584625,295.025208 397.991730,295.749420 397.334290,296.177765 
	C379.850281,307.569122 361.460022,300.430542 356.304565,280.249725 
	C351.910156,263.047821 360.315918,243.345810 375.998199,234.747040 
M376.072235,282.312408 
	C380.773254,289.516754 385.857819,292.036377 392.090576,290.250214 
	C398.148254,288.514221 400.581604,284.274231 400.645966,275.188721 
	C400.691864,268.709686 400.678467,262.230103 400.669891,255.750824 
	C400.660217,248.439224 396.622223,242.230469 390.879395,240.652802 
	C385.610504,239.205307 379.906952,242.536697 376.335632,249.497467 
	C370.907410,260.077576 371.144928,270.851440 376.072235,282.312408 
z"/>
<path fill="#000000" opacity="1.000000" stroke="none" 
	d="
M345.247986,291.713867 
	C347.140320,292.467987 348.699371,293.043365 350.293060,293.497192 
	C352.078796,294.005707 353.393097,294.884308 353.099304,296.961945 
	C352.837006,298.816895 351.389709,299.331238 349.790375,299.313904 
	C344.592865,299.257568 339.544067,300.351532 334.462769,301.193390 
	C330.370117,301.871429 327.097839,301.335541 327.074493,296.307922 
	C324.813293,295.638184 323.659698,297.123932 322.253662,297.884705 
	C302.978760,308.314423 283.078522,296.422150 282.577057,274.474243 
	C282.242859,259.847412 285.759552,247.067215 297.800568,237.780029 
	C305.706696,231.682037 314.484100,229.800232 324.111176,233.249130 
	C324.732849,233.471863 325.388611,233.621841 326.041199,233.726105 
	C326.344238,233.774521 326.677734,233.631973 327.561279,233.477234 
	C327.561279,227.313187 327.728210,221.040924 327.487213,214.784363 
	C327.375427,211.882416 324.466278,211.605453 322.347290,210.774338 
	C320.749603,210.147675 318.387878,210.383469 318.610596,207.677612 
	C318.804779,205.318604 320.819427,205.024002 322.569397,204.538086 
	C327.855621,203.070282 333.178680,201.727188 338.431519,200.149506 
	C342.486908,198.931458 344.126160,200.672928 344.160553,204.470566 
	C344.205841,209.468079 344.329224,214.482224 344.008118,219.462723 
	C342.591248,241.439026 343.718536,263.434265 343.360199,285.416779 
	C343.325165,287.565948 343.080200,289.804413 345.247986,291.713867 
M323.976410,244.549210 
	C317.769623,238.981964 312.620514,238.943787 307.038818,244.423660 
	C297.546356,253.742996 296.616028,275.966064 305.296753,286.037048 
	C308.842163,290.150269 314.937744,291.837128 319.774353,290.043518 
	C325.431488,287.945587 327.608185,284.757812 327.658813,278.189880 
	C327.719055,270.377380 327.568787,262.561890 327.728058,254.752182 
	C327.803467,251.056458 326.864014,247.881271 323.976410,244.549210 
z"/>
<path fill="#000000" opacity="1.000000" stroke="none" 
	d="
M866.656616,260.999268 
	C866.702881,246.668900 866.670898,232.837646 866.838684,219.008835 
	C866.890381,214.755783 865.764832,211.795151 861.047485,211.359283 
	C859.077148,211.177231 857.960327,210.111130 857.940369,208.154694 
	C857.919250,206.092941 859.520447,205.299454 861.146240,204.840942 
	C867.065369,203.171585 873.016541,201.616287 878.949829,199.996872 
	C881.365173,199.337631 882.201233,200.612091 882.691223,202.715836 
	C883.322083,205.424515 882.364624,208.011719 882.362305,210.663696 
	C882.348206,226.993576 882.310547,243.323471 882.300781,259.653351 
	C882.300415,260.272858 882.505371,260.892456 882.792908,262.523712 
	C889.231750,256.544678 895.159973,251.109741 899.962708,244.572922 
	C901.851685,242.001740 899.637024,240.690720 897.888123,239.388992 
	C896.274414,238.187897 894.297302,237.031693 895.013062,234.651749 
	C895.781128,232.097534 898.216492,232.706345 900.118896,232.687943 
	C906.616882,232.625092 913.116272,232.636719 919.614380,232.698776 
	C921.550537,232.717270 923.889709,232.371185 924.406555,235.110657 
	C924.886963,237.656967 923.031372,238.374222 921.089233,239.290314 
	C912.009949,243.573029 905.207642,250.667786 898.550659,257.920929 
	C897.074219,259.529663 897.730469,260.891327 898.745361,262.376343 
	C905.624207,272.441681 913.009949,282.077911 922.154297,290.236633 
	C923.904175,291.797943 925.813293,293.086365 928.043030,293.930084 
	C929.869751,294.621338 931.285889,295.870911 930.851135,298.070679 
	C930.439819,300.152496 928.689819,300.355286 926.950439,300.356384 
	C921.784973,300.359680 916.619263,300.319031 911.454041,300.350250 
	C907.813599,300.372253 905.767517,297.971130 903.777161,295.456024 
	C897.277100,287.241852 891.169189,278.740204 885.607422,269.932495 
	C883.108521,270.645782 882.301086,272.285889 882.271606,274.176880 
	C882.191101,279.339417 882.279541,284.505157 882.340881,289.669128 
	C882.372009,292.289398 884.456299,293.247711 886.307007,294.363617 
	C887.544373,295.109680 888.382568,296.113129 888.074951,297.628723 
	C887.733276,299.312256 886.533081,300.239746 884.881104,300.278290 
	C877.059814,300.460785 869.236816,300.619965 861.413879,300.652863 
	C859.695618,300.660095 858.093323,299.944275 857.885803,297.828247 
	C857.715698,296.093170 858.598450,294.684479 860.139221,294.352692 
	C866.632141,292.954468 866.373962,287.694061 866.560913,282.992126 
	C866.845337,275.837921 866.648010,268.664551 866.656616,260.999268 
z"/>
<path fill="#000000" opacity="1.000000" stroke="none" 
	d="
M489.239807,279.967285 
	C489.245148,282.626007 489.370117,284.799652 489.228546,286.955750 
	C488.993958,290.528564 489.806885,293.158142 493.904297,293.862793 
	C495.660339,294.164795 496.892273,295.545502 496.793762,297.442322 
	C496.689240,299.455017 495.200378,300.352722 493.348419,300.292877 
	C485.192078,300.029266 477.053528,301.465607 468.900543,300.546173 
	C467.362946,300.372772 465.260345,300.718048 464.983002,298.372345 
	C464.748932,296.392487 466.113403,295.230652 467.793457,294.748596 
	C472.582855,293.374420 473.609375,289.702454 473.626282,285.452148 
	C473.672638,273.790497 473.607147,262.128357 473.664093,250.466797 
	C473.683685,246.452820 472.498901,243.635513 467.955078,243.245132 
	C466.149994,243.090042 464.817749,242.145248 464.780029,240.067429 
	C464.741974,237.971832 466.181396,237.171204 467.861694,236.704559 
	C473.467743,235.147766 479.088928,233.645416 484.704559,232.123123 
	C487.046051,231.488373 488.162079,232.458008 488.335175,234.809097 
	C488.429749,236.093704 488.060699,237.519028 489.704834,238.963516 
	C493.981995,236.449356 498.303497,233.560455 503.526123,232.368408 
	C518.319275,228.991943 528.201965,236.544067 528.297668,251.774155 
	C528.372009,263.602020 528.400208,275.432465 528.222107,287.258331 
	C528.166809,290.927307 529.159668,293.397888 532.904663,294.334717 
	C534.626160,294.765289 536.141541,295.557129 535.924561,297.662537 
	C535.677734,300.057800 533.817261,300.236084 531.886963,300.444702 
	C524.574768,301.235016 517.241394,300.952332 509.918396,300.901886 
	C508.069305,300.889160 505.527863,301.068237 505.043579,298.466675 
	C504.650177,296.353455 506.362183,295.204498 508.075073,294.370178 
	C511.274109,292.811890 512.674316,290.238708 512.664124,286.731506 
	C512.634583,276.569214 512.878845,266.400421 512.593262,256.246094 
	C512.294678,245.631042 505.639465,240.979019 496.422272,244.515274 
	C491.631226,246.353378 489.464630,250.073639 489.374420,254.985794 
	C489.224548,263.146698 489.274109,271.311279 489.239807,279.967285 
z"/>
<path fill="#000000" opacity="1.000000" stroke="none" 
	d="
M718.101562,277.449829 
	C715.184204,263.887878 717.347961,251.794952 726.678345,241.770370 
	C735.365417,232.436874 746.267212,229.600677 758.546814,233.025146 
	C770.901245,236.470505 778.281006,244.852783 781.215576,257.195618 
	C782.813782,263.917969 782.862061,270.683594 781.070618,277.417511 
	C777.285156,291.646759 766.508118,300.815216 753.929810,301.443420 
	C732.149963,302.531097 721.853638,291.342377 718.101562,277.449829 
M750.996033,239.384140 
	C744.669067,238.596848 739.947266,241.444031 737.715820,246.979721 
	C732.357483,260.272614 732.631531,273.635834 739.426697,286.459015 
	C742.082520,291.470764 746.530334,294.597290 752.387024,294.285187 
	C757.246399,294.026276 762.146179,288.218079 763.624817,282.147247 
	C765.429199,274.738892 765.181152,267.178741 764.339478,259.791840 
	C763.373901,251.317612 761.608459,242.736633 750.996033,239.384140 
z"/>
<path fill="#000000" opacity="1.000000" stroke="none" 
	d="
M788.679443,264.247467 
	C790.118408,252.141769 794.716980,242.325653 805.193054,236.151779 
	C824.699280,224.656204 849.143311,236.149353 853.297058,258.532471 
	C855.131287,268.416473 854.079285,277.723389 849.051758,286.474182 
	C842.306946,298.214233 830.220398,303.434784 815.174805,301.182800 
	C802.035583,299.216125 792.519226,290.148621 789.658508,277.095245 
	C788.757751,272.984924 788.569336,268.871704 788.679443,264.247467 
M807.424927,252.034973 
	C805.565125,263.475677 804.838440,274.848816 810.409241,285.590332 
	C813.188049,290.948334 817.519531,294.582794 823.835266,294.206177 
	C829.344971,293.877686 834.011963,288.271393 835.601257,281.497986 
	C837.103882,275.093628 837.029480,268.589539 836.493530,262.173126 
	C835.986023,256.097778 834.995422,249.949631 831.082275,244.817947 
	C825.000732,236.842606 814.647339,237.481766 809.736267,246.212784 
	C808.848511,247.790955 808.309631,249.565353 807.424927,252.034973 
z"/>
<path fill="#000000" opacity="1.000000" stroke="none" 
	d="
M270.329529,239.774933 
	C275.155731,246.168304 275.802155,253.194870 275.264740,260.469635 
	C274.978943,264.338135 272.359161,265.316376 268.990204,265.308899 
	C260.005981,265.289001 251.021667,265.296753 242.037399,265.298370 
	C235.046204,265.299622 235.046188,265.302887 236.212646,272.251953 
	C238.069580,283.314514 243.066940,289.178864 252.504028,291.202576 
	C258.221100,292.428558 263.307495,290.594360 268.143433,287.716217 
	C270.104462,286.549103 272.186127,284.656921 274.125061,287.594269 
	C275.822876,290.166321 273.630585,291.618988 272.050934,292.961914 
	C261.324768,302.080719 248.923813,304.206696 236.154892,299.175049 
	C223.572433,294.216827 219.131500,283.162689 218.663727,270.293152 
	C218.273956,259.569092 221.261658,249.895828 228.253799,241.684250 
	C238.849167,229.241043 258.737915,228.260254 270.329529,239.774933 
M259.343079,247.495132 
	C256.615845,241.007523 253.560852,238.846405 247.848663,239.363937 
	C241.507660,239.938431 234.744919,249.682892 236.364548,255.761993 
	C236.956055,257.982056 238.584717,257.969818 240.250031,257.963623 
	C245.241882,257.945038 250.233536,257.817535 255.225189,257.823242 
	C258.345154,257.826782 259.863159,256.420959 259.712463,253.269180 
	C259.633057,251.608124 259.593140,249.945175 259.343079,247.495132 
z"/>
<path fill="#000000" opacity="1.000000" stroke="none" 
	d="
M437.651337,257.050659 
	C437.648346,254.398407 437.559204,252.232758 437.662201,250.076279 
	C437.839996,246.354156 436.363129,243.995056 432.531158,243.403473 
	C430.617004,243.107986 428.883209,242.565857 428.779968,240.200226 
	C428.672821,237.745743 430.645721,237.257874 432.365051,236.755356 
	C437.301544,235.312485 442.332581,234.170288 447.212463,232.563797 
	C450.994904,231.318588 452.113831,232.352570 452.423676,236.287964 
	C453.548065,250.568726 453.162781,264.858276 453.192749,279.147491 
	C453.198334,281.807739 453.240021,284.470428 453.144836,287.127686 
	C453.025879,290.448212 453.769012,293.014130 457.584381,293.765320 
	C459.499908,294.142517 461.108429,295.419067 460.868774,297.545685 
	C460.612305,299.822052 458.505493,300.154785 456.665924,300.221130 
	C449.192566,300.490753 441.716125,300.737976 434.239166,300.801117 
	C432.366669,300.816956 429.912170,300.980652 429.283051,298.438812 
	C428.549042,295.473022 430.978271,294.917542 433.024872,294.183258 
	C435.720398,293.216156 436.701416,291.117615 437.034363,288.426819 
	C438.306061,278.149017 437.333313,267.833496 437.651337,257.050659 
z"/>
<path fill="#000000" opacity="1.000000" stroke="none" 
	d="
M434.772278,213.340042 
	C435.558838,210.348694 436.350739,207.794708 438.907227,206.367722 
	C443.015533,204.074570 447.136993,203.773819 450.994598,206.796341 
	C454.172760,209.286530 454.799194,215.562744 452.499023,220.168457 
	C450.450958,224.269379 446.919861,225.700134 442.597168,225.222031 
	C438.393463,224.757065 435.247101,221.043320 434.713470,216.240051 
	C434.622620,215.422318 434.714264,214.584305 434.772278,213.340042 
z"/>
</svg>